<svg xmlns="http://www.w3.org/2000/svg" xmlns:xlink="http://www.w3.org/1999/xlink" width="500" zoomAndPan="magnify" viewBox="0 0 375 374.999991" height="500" preserveAspectRatio="xMidYMid meet" version="1.0"><defs><clipPath id="b1f52bf50b"><path d="M 1 53 L 375 53 L 375 358.125 L 1 358.125 Z M 1 53 " clip-rule="nonzero"/></clipPath><clipPath id="4c1f1bcf73"><path d="M 109 16.875 L 142 16.875 L 142 75 L 109 75 Z M 109 16.875 " clip-rule="nonzero"/></clipPath><clipPath id="a927163694"><path d="M 260 16.875 L 293 16.875 L 293 75 L 260 75 Z M 260 16.875 " clip-rule="nonzero"/></clipPath></defs><g clip-path="url(#b1f52bf50b)"><path fill="#000000" d="M 344.21875 53.824219 L 302.703125 53.824219 L 302.703125 61.296875 C 302.703125 62.957031 302.703125 64.617188 302.289062 66.277344 C 300.210938 77.070312 290.664062 84.957031 279.453125 84.957031 L 273.644531 84.957031 C 262.433594 84.957031 252.886719 77.070312 250.808594 66.277344 C 250.394531 64.617188 250.394531 62.957031 250.394531 61.296875 L 250.394531 53.824219 L 152.003906 53.824219 L 152.003906 61.296875 C 152.003906 62.957031 152.003906 64.617188 151.589844 66.277344 C 149.515625 77.070312 139.964844 84.957031 128.757812 84.957031 L 122.945312 84.957031 C 111.734375 84.957031 102.1875 77.070312 100.113281 66.277344 C 99.695312 64.617188 99.695312 62.957031 99.695312 61.296875 L 99.695312 53.824219 L 85.996094 53.824219 C 68.976562 53.824219 55.277344 67.523438 55.277344 84.542969 L 55.277344 96.582031 L 2.136719 285.472656 C 0.0625 292.53125 1.308594 299.589844 5.457031 305.402344 C 10.023438 311.628906 17.914062 314.949219 26.632812 314.949219 L 54.859375 314.949219 L 54.859375 327.402344 C 54.859375 344.425781 68.5625 358.125 85.582031 358.125 L 344.21875 358.125 C 361.238281 358.125 374.9375 344.425781 374.9375 327.402344 L 374.9375 84.542969 C 374.9375 67.523438 361.238281 53.824219 344.21875 53.824219 Z M 26.632812 297.097656 C 23.308594 297.097656 20.820312 296.269531 19.574219 294.609375 C 18.742188 293.363281 18.328125 292.117188 19.160156 290.042969 L 67.730469 115.679688 L 342.972656 115.679688 L 295.644531 285.472656 C 293.984375 291.703125 285.265625 297.511719 277.792969 297.511719 L 26.632812 297.511719 Z M 357.503906 327.402344 C 357.503906 334.460938 351.691406 340.6875 344.21875 340.6875 L 85.582031 340.6875 C 78.523438 340.6875 72.296875 334.875 72.296875 327.402344 L 72.296875 314.949219 L 277.792969 314.949219 C 293.570312 314.949219 308.515625 304.15625 312.667969 290.457031 L 357.503906 129.792969 Z M 357.503906 327.402344 " fill-opacity="1" fill-rule="nonzero"/></g><g clip-path="url(#4c1f1bcf73)"><path fill="#000000" d="M 122.53125 74.582031 L 128.339844 74.582031 C 135.8125 74.582031 141.625 68.769531 141.625 61.296875 L 141.625 30.160156 C 141.625 22.6875 135.8125 16.875 128.339844 16.875 L 122.53125 16.875 C 115.472656 16.875 109.246094 22.6875 109.246094 30.160156 L 109.246094 61.296875 C 109.246094 68.769531 115.472656 74.582031 122.53125 74.582031 Z M 122.53125 74.582031 " fill-opacity="1" fill-rule="nonzero"/></g><g clip-path="url(#a927163694)"><path fill="#000000" d="M 273.644531 74.582031 L 279.453125 74.582031 C 286.925781 74.582031 292.738281 68.769531 292.738281 61.296875 L 292.738281 30.160156 C 292.738281 22.6875 286.511719 16.875 279.453125 16.875 L 273.644531 16.875 C 266.171875 16.875 260.359375 22.6875 260.359375 30.160156 L 260.359375 61.296875 C 260.359375 68.769531 266.171875 74.582031 273.644531 74.582031 Z M 273.644531 74.582031 " fill-opacity="1" fill-rule="nonzero"/></g><path fill="#000000" d="M 164.875 209.503906 L 124.605469 171.308594 L 99.695312 197.878906 L 165.703125 260.152344 L 259.113281 166.742188 L 233.375 141.003906 Z M 164.875 209.503906 " fill-opacity="1" fill-rule="nonzero"/></svg>