<svg xmlns="http://www.w3.org/2000/svg" xmlns:xlink="http://www.w3.org/1999/xlink" width="500" zoomAndPan="magnify" viewBox="0 0 375 374.999991" height="500" preserveAspectRatio="xMidYMid meet" version="1.0"><defs><clipPath id="b3b1fe042d"><path d="M 0 162 L 375 162 L 375 301.078125 L 0 301.078125 Z M 0 162 " clip-rule="nonzero"/></clipPath><clipPath id="ed11238a6e"><path d="M 108 73.828125 L 200 73.828125 L 200 214 L 108 214 Z M 108 73.828125 " clip-rule="nonzero"/></clipPath></defs><g clip-path="url(#b3b1fe042d)"><path fill="#040606" d="M 354.53125 274.03125 C 351.175781 275.4375 347.667969 276.707031 344.011719 277.824219 C 340.34375 278.953125 336.511719 279.933594 332.519531 280.757812 C 328.511719 281.59375 324.332031 282.28125 319.984375 282.816406 C 313.398438 283.640625 306.679688 284.109375 299.832031 284.300781 C 292.957031 284.503906 285.964844 284.4375 278.855469 284.175781 C 271.734375 283.921875 264.492188 283.484375 257.140625 282.949219 C 249.773438 282.417969 242.296875 281.777344 234.707031 281.136719 C 227.214844 280.503906 219.648438 279.867188 212.054688 279.320312 C 204.449219 278.765625 196.8125 278.308594 189.195312 278.039062 C 181.5625 277.777344 173.9375 277.6875 166.359375 277.894531 C 158.765625 278.109375 151.207031 278.59375 143.730469 279.476562 C 139.023438 280.03125 134.457031 280.726562 130 281.5625 C 125.539062 282.410156 121.191406 283.390625 116.953125 284.523438 C 112.699219 285.660156 108.550781 286.953125 104.492188 288.398438 C 100.417969 289.84375 96.433594 291.457031 92.527344 293.222656 L 10.636719 184.226562 C 14.339844 182.742188 18.097656 181.402344 21.929688 180.207031 C 25.753906 179.023438 29.648438 177.972656 33.628906 177.050781 C 37.601562 176.148438 41.660156 175.371094 45.828125 174.722656 C 49.980469 174.082031 54.246094 173.574219 58.621094 173.1875 C 65.207031 172.605469 71.804688 172.324219 78.4375 172.273438 C 85.058594 172.214844 91.71875 172.390625 98.4375 172.710938 C 105.148438 173.042969 111.917969 173.515625 118.765625 174.070312 C 125.601562 174.625 132.523438 175.253906 139.523438 175.894531 C 146.429688 176.527344 153.390625 177.167969 160.363281 177.730469 C 167.328125 178.285156 174.300781 178.769531 181.246094 179.097656 C 188.179688 179.429688 195.074219 179.59375 201.894531 179.527344 C 208.691406 179.46875 215.402344 179.167969 221.984375 178.546875 C 226.097656 178.167969 230.066406 177.671875 233.898438 177.0625 C 237.71875 176.449219 241.398438 175.722656 244.953125 174.886719 C 248.496094 174.050781 251.910156 173.097656 255.207031 172.03125 C 258.488281 170.964844 261.65625 169.789062 264.710938 168.488281 L 364.140625 269.351562 C 361.078125 271.058594 357.875 272.613281 354.53125 274.03125 Z M 374.804688 270.601562 C 374.683594 270.371094 374.507812 270.125 374.265625 269.882812 L 269.441406 164.382812 C 269.261719 164.207031 269.03125 164.03125 268.773438 163.867188 C 268.515625 163.703125 268.226562 163.546875 267.902344 163.398438 C 267.585938 163.265625 267.238281 163.136719 266.875 163.023438 C 266.511719 162.914062 266.128906 162.828125 265.734375 162.761719 C 265.527344 162.722656 265.3125 162.691406 265.101562 162.664062 C 264.894531 162.640625 264.691406 162.621094 264.484375 162.613281 C 264.28125 162.605469 264.082031 162.605469 263.890625 162.605469 C 263.6875 162.605469 263.5 162.613281 263.3125 162.632812 C 263.160156 162.640625 263.015625 162.664062 262.867188 162.691406 C 262.722656 162.710938 262.582031 162.742188 262.453125 162.769531 C 262.316406 162.800781 262.1875 162.835938 262.070312 162.878906 C 261.945312 162.914062 261.832031 162.964844 261.722656 163.011719 C 258.625 164.476562 255.410156 165.808594 252.066406 167.003906 C 248.703125 168.195312 245.21875 169.265625 241.582031 170.1875 C 237.9375 171.121094 234.148438 171.914062 230.207031 172.574219 C 226.246094 173.234375 222.132812 173.761719 217.855469 174.160156 C 211.679688 174.730469 205.410156 175.003906 199.042969 175.058594 C 192.664062 175.117188 186.1875 174.953125 179.625 174.644531 C 173.046875 174.324219 166.382812 173.859375 159.621094 173.304688 C 152.851562 172.761719 145.988281 172.128906 139.019531 171.488281 C 132.132812 170.847656 125.179688 170.207031 118.195312 169.644531 C 111.203125 169.070312 104.179688 168.585938 97.15625 168.246094 C 90.121094 167.90625 83.082031 167.722656 76.0625 167.769531 C 69.027344 167.820312 62.015625 168.109375 55.042969 168.722656 C 50.117188 169.148438 45.332031 169.722656 40.679688 170.449219 C 36.007812 171.175781 31.46875 172.0625 27.03125 173.097656 C 22.578125 174.136719 18.234375 175.339844 13.976562 176.703125 C 9.703125 178.070312 5.515625 179.605469 1.402344 181.3125 C 1.082031 181.441406 0.816406 181.59375 0.613281 181.769531 C 0.402344 181.941406 0.253906 182.128906 0.160156 182.324219 C 0.0742188 182.519531 0.0390625 182.730469 0.0742188 182.945312 C 0.105469 183.15625 0.203125 183.371094 0.363281 183.59375 L 85.929688 298.796875 C 86.117188 299.046875 86.347656 299.28125 86.625 299.496094 C 86.902344 299.707031 87.21875 299.914062 87.570312 300.085938 C 87.925781 300.273438 88.316406 300.4375 88.726562 300.570312 C 89.140625 300.707031 89.578125 300.824219 90.035156 300.910156 C 90.289062 300.960938 90.546875 300.988281 90.792969 301.019531 C 91.046875 301.046875 91.296875 301.058594 91.542969 301.066406 C 91.792969 301.078125 92.035156 301.078125 92.273438 301.066406 C 92.511719 301.058594 92.746094 301.039062 92.972656 301.007812 C 93.164062 300.988281 93.347656 300.960938 93.523438 300.921875 C 93.699219 300.894531 93.871094 300.84375 94.035156 300.804688 C 94.203125 300.757812 94.363281 300.699219 94.511719 300.640625 C 94.667969 300.582031 94.808594 300.523438 94.945312 300.457031 C 98.976562 298.398438 103.09375 296.542969 107.304688 294.875 C 111.5 293.214844 115.789062 291.738281 120.199219 290.445312 C 124.585938 289.164062 129.097656 288.058594 133.742188 287.136719 C 138.363281 286.203125 143.128906 285.449219 148.042969 284.863281 C 155.109375 284.019531 162.214844 283.542969 169.382812 283.339844 C 176.53125 283.136719 183.746094 283.214844 191.035156 283.464844 C 198.3125 283.726562 205.675781 284.175781 213.132812 284.707031 C 220.578125 285.253906 228.113281 285.882812 235.75 286.535156 C 243.269531 287.164062 250.851562 287.796875 258.433594 288.339844 C 266.003906 288.882812 273.582031 289.332031 281.109375 289.59375 C 288.617188 289.84375 296.070312 289.914062 303.40625 289.699219 C 310.726562 289.476562 317.925781 288.972656 324.9375 288.085938 C 329.863281 287.464844 334.566406 286.679688 339.070312 285.71875 C 343.5625 284.757812 347.84375 283.628906 351.9375 282.328125 C 356.019531 281.03125 359.902344 279.550781 363.605469 277.914062 C 367.300781 276.273438 370.8125 274.457031 374.160156 272.476562 C 374.414062 272.320312 374.609375 272.136719 374.746094 271.941406 C 374.878906 271.746094 374.953125 271.535156 374.960938 271.3125 C 374.96875 271.078125 374.914062 270.847656 374.804688 270.601562 " fill-opacity="1" fill-rule="nonzero"/></g><path fill="#040606" d="M 289.128906 223.03125 C 286.949219 223.683594 284.710938 224.273438 282.410156 224.796875 C 280.101562 225.324219 277.726562 225.789062 275.285156 226.1875 C 272.839844 226.59375 270.320312 226.933594 267.71875 227.214844 C 265.339844 227.46875 262.917969 227.671875 260.457031 227.828125 C 257.996094 227.984375 255.496094 228.089844 252.960938 228.148438 C 250.425781 228.214844 247.851562 228.234375 245.25 228.214844 C 242.640625 228.195312 240.003906 228.148438 237.328125 228.058594 L 214.550781 189.632812 C 215.960938 189.585938 217.371094 189.539062 218.777344 189.46875 C 220.1875 189.402344 221.589844 189.324219 223 189.234375 C 224.398438 189.148438 225.808594 189.050781 227.203125 188.933594 C 228.605469 188.828125 230 188.703125 231.398438 188.566406 C 233.972656 188.324219 236.488281 188.042969 238.949219 187.71875 C 241.398438 187.402344 243.792969 187.039062 246.140625 186.65625 C 248.484375 186.253906 250.777344 185.828125 253.023438 185.363281 C 255.269531 184.898438 257.464844 184.394531 259.628906 183.835938 L 295.492188 220.886719 C 293.429688 221.660156 291.304688 222.378906 289.128906 223.03125 Z M 330.828125 266.417969 C 328.605469 267.144531 326.328125 267.796875 323.984375 268.378906 C 321.628906 268.972656 319.210938 269.488281 316.714844 269.941406 C 314.210938 270.398438 311.636719 270.789062 308.972656 271.109375 C 305.476562 271.523438 301.890625 271.835938 298.226562 272.03125 C 294.554688 272.234375 290.796875 272.339844 286.96875 272.351562 C 283.136719 272.367188 279.226562 272.300781 275.257812 272.175781 C 271.277344 272.039062 267.238281 271.835938 263.140625 271.59375 L 238.800781 230.535156 C 241.523438 230.625 244.222656 230.671875 246.886719 230.683594 C 249.546875 230.691406 252.1875 230.671875 254.789062 230.601562 C 257.386719 230.527344 259.953125 230.421875 262.488281 230.253906 C 265.019531 230.089844 267.515625 229.886719 269.976562 229.613281 C 272.589844 229.332031 275.121094 228.992188 277.582031 228.59375 C 280.046875 228.1875 282.429688 227.730469 284.75 227.214844 C 287.070312 226.703125 289.324219 226.121094 291.519531 225.488281 C 293.710938 224.847656 295.847656 224.148438 297.921875 223.390625 L 337.296875 264.050781 C 335.195312 264.914062 333.039062 265.699219 330.828125 266.417969 Z M 251.742188 270.804688 C 249.628906 270.652344 247.503906 270.476562 245.367188 270.300781 C 243.222656 270.136719 241.074219 269.953125 238.914062 269.769531 C 236.746094 269.585938 234.570312 269.398438 232.382812 269.214844 C 227.953125 268.835938 223.492188 268.457031 219.015625 268.097656 C 214.539062 267.730469 210.039062 267.390625 205.519531 267.070312 C 201 266.757812 196.460938 266.476562 191.902344 266.253906 C 187.347656 266.03125 182.773438 265.855469 178.183594 265.75 L 152.089844 224.273438 C 155.625 224.449219 159.136719 224.652344 162.648438 224.886719 C 166.148438 225.109375 169.648438 225.371094 173.132812 225.644531 C 176.617188 225.914062 180.089844 226.195312 183.546875 226.496094 C 187.003906 226.789062 190.449219 227.089844 193.871094 227.390625 C 197.339844 227.699219 200.777344 228 204.183594 228.292969 C 207.589844 228.582031 210.96875 228.867188 214.316406 229.128906 C 217.660156 229.390625 220.972656 229.625 224.253906 229.835938 C 227.53125 230.042969 230.777344 230.214844 233.988281 230.363281 L 258.039062 271.261719 C 255.957031 271.128906 253.855469 270.972656 251.742188 270.804688 Z M 163.484375 265.691406 C 160.25 265.738281 157.011719 265.835938 153.761719 265.980469 C 150.515625 266.125 147.25 266.320312 143.988281 266.574219 C 140.714844 266.828125 137.4375 267.136719 134.152344 267.515625 C 131.25 267.847656 128.402344 268.222656 125.605469 268.640625 C 122.804688 269.058594 120.054688 269.527344 117.347656 270.03125 C 114.632812 270.535156 111.960938 271.097656 109.324219 271.699219 C 106.683594 272.300781 104.078125 272.953125 101.496094 273.664062 L 92.472656 261.945312 L 160.25 245.023438 L 173.15625 265.671875 C 169.9375 265.640625 166.714844 265.640625 163.484375 265.691406 Z M 76.09375 228.953125 C 78.660156 228.402344 81.265625 227.894531 83.90625 227.429688 C 86.542969 226.972656 89.21875 226.554688 91.941406 226.175781 C 94.664062 225.808594 97.429688 225.476562 100.257812 225.1875 C 104.203125 224.78125 108.144531 224.46875 112.078125 224.234375 C 116.007812 224.011719 119.925781 223.867188 123.832031 223.789062 C 127.738281 223.710938 131.636719 223.703125 135.527344 223.75 C 139.40625 223.796875 143.289062 223.90625 147.15625 224.050781 L 158.566406 242.320312 L 90.40625 259.265625 L 68.449219 230.757812 C 70.96875 230.109375 73.515625 229.507812 76.09375 228.953125 Z M 43.746094 187.246094 C 46.183594 186.625 48.648438 186.070312 51.160156 185.585938 C 53.671875 185.089844 56.21875 184.664062 58.824219 184.292969 C 61.421875 183.9375 64.070312 183.625 66.78125 183.382812 C 69.292969 183.148438 71.828125 182.972656 74.386719 182.847656 C 76.945312 182.722656 79.53125 182.644531 82.136719 182.605469 C 84.746094 182.566406 87.371094 182.566406 90.023438 182.605469 C 92.675781 182.644531 95.351562 182.722656 98.050781 182.820312 L 109.484375 221.828125 C 108.554688 221.886719 107.628906 221.945312 106.695312 222.011719 C 105.761719 222.078125 104.835938 222.148438 103.902344 222.226562 C 102.96875 222.304688 102.035156 222.378906 101.101562 222.46875 C 100.164062 222.554688 99.230469 222.640625 98.296875 222.738281 C 95.46875 223.023438 92.699219 223.351562 89.976562 223.71875 C 87.25 224.089844 84.574219 224.496094 81.9375 224.953125 C 79.296875 225.410156 76.695312 225.90625 74.125 226.441406 C 71.546875 226.980469 69 227.566406 66.476562 228.195312 L 36.507812 189.292969 C 38.894531 188.546875 41.300781 187.867188 43.746094 187.246094 Z M 112.0625 183.59375 C 115.175781 183.808594 118.3125 184.042969 121.480469 184.304688 C 124.640625 184.554688 127.832031 184.828125 131.039062 185.121094 C 134.246094 185.402344 137.480469 185.695312 140.734375 185.984375 C 143.113281 186.207031 145.5 186.421875 147.894531 186.632812 C 150.289062 186.847656 152.683594 187.0625 155.089844 187.265625 C 157.488281 187.46875 159.894531 187.671875 162.304688 187.867188 C 164.714844 188.050781 167.125 188.234375 169.542969 188.410156 L 173.433594 223.265625 C 168.597656 222.875 163.738281 222.527344 158.859375 222.226562 C 153.972656 221.925781 149.066406 221.671875 144.144531 221.507812 C 139.214844 221.332031 134.261719 221.234375 129.292969 221.234375 C 124.316406 221.246094 119.3125 221.34375 114.296875 221.574219 L 102.796875 183.03125 C 105.855469 183.1875 108.945312 183.382812 112.0625 183.59375 Z M 183.230469 189.246094 C 186.214844 189.402344 189.203125 189.519531 192.191406 189.617188 C 195.183594 189.703125 198.167969 189.761719 201.15625 189.789062 C 204.136719 189.808594 207.117188 189.800781 210.101562 189.742188 L 232.527344 227.875 C 229.40625 227.738281 226.253906 227.554688 223.066406 227.351562 C 219.875 227.148438 216.652344 226.914062 213.398438 226.660156 C 210.136719 226.410156 206.851562 226.136719 203.535156 225.859375 C 200.210938 225.566406 196.867188 225.273438 193.496094 224.972656 C 192.238281 224.867188 190.980469 224.757812 189.722656 224.644531 C 188.464844 224.535156 187.203125 224.421875 185.941406 224.3125 C 184.671875 224.195312 183.410156 224.089844 182.140625 223.980469 C 180.875 223.875 179.609375 223.769531 178.335938 223.664062 L 174.273438 188.730469 C 177.257812 188.925781 180.238281 189.101562 183.230469 189.246094 Z M 262.09375 181.808594 C 261.984375 181.738281 261.855469 181.664062 261.710938 181.597656 C 261.570312 181.527344 261.414062 181.46875 261.25 181.410156 C 261.089844 181.351562 260.914062 181.304688 260.730469 181.265625 C 260.605469 181.226562 260.476562 181.207031 260.355469 181.1875 C 260.226562 181.167969 260.105469 181.148438 259.976562 181.136719 C 259.859375 181.128906 259.734375 181.128906 259.613281 181.128906 C 259.5 181.128906 259.378906 181.136719 259.273438 181.148438 C 259.230469 181.148438 259.1875 181.160156 259.148438 181.160156 C 259.105469 181.167969 259.066406 181.167969 259.027344 181.179688 C 258.988281 181.1875 258.949219 181.195312 258.90625 181.195312 C 258.871094 181.207031 258.832031 181.214844 258.796875 181.226562 C 256.546875 181.828125 254.253906 182.382812 251.914062 182.886719 C 249.566406 183.402344 247.171875 183.867188 244.730469 184.285156 C 242.277344 184.710938 239.769531 185.089844 237.203125 185.429688 C 234.632812 185.769531 231.996094 186.070312 229.292969 186.332031 C 222 187.03125 214.644531 187.382812 207.246094 187.480469 C 199.832031 187.574219 192.394531 187.410156 184.949219 187.082031 C 177.496094 186.75 170.046875 186.246094 162.632812 185.652344 C 155.199219 185.0625 147.804688 184.394531 140.464844 183.722656 C 133.800781 183.117188 127.214844 182.519531 120.730469 181.992188 C 114.238281 181.46875 107.84375 181.011719 101.554688 180.703125 C 95.25 180.402344 89.054688 180.226562 82.964844 180.273438 C 76.855469 180.3125 70.851562 180.566406 64.957031 181.101562 C 61.996094 181.371094 59.105469 181.703125 56.269531 182.113281 C 53.429688 182.507812 50.644531 182.984375 47.910156 183.527344 C 45.171875 184.070312 42.480469 184.691406 39.832031 185.378906 C 37.175781 186.070312 34.554688 186.835938 31.96875 187.683594 C 31.785156 187.742188 31.628906 187.820312 31.507812 187.90625 C 31.382812 187.992188 31.289062 188.097656 31.230469 188.207031 C 31.171875 188.3125 31.148438 188.429688 31.164062 188.546875 C 31.175781 188.664062 31.230469 188.777344 31.324219 188.90625 L 97.972656 275.902344 C 98.058594 276.011719 98.164062 276.117188 98.28125 276.214844 C 98.398438 276.300781 98.53125 276.398438 98.683594 276.476562 C 98.828125 276.554688 98.996094 276.632812 99.164062 276.699219 C 99.335938 276.757812 99.515625 276.816406 99.699219 276.855469 C 99.84375 276.894531 99.988281 276.921875 100.136719 276.941406 C 100.28125 276.972656 100.425781 276.992188 100.566406 277 C 100.707031 277.011719 100.847656 277.011719 100.984375 277.011719 C 101.121094 277.011719 101.253906 277 101.382812 276.980469 C 101.4375 276.980469 101.484375 276.972656 101.539062 276.960938 C 101.585938 276.953125 101.640625 276.941406 101.6875 276.933594 C 101.738281 276.921875 101.785156 276.914062 101.835938 276.902344 C 101.882812 276.894531 101.933594 276.875 101.976562 276.867188 C 104.683594 276.078125 107.417969 275.359375 110.1875 274.6875 C 112.957031 274.03125 115.757812 273.417969 118.605469 272.863281 C 121.445312 272.300781 124.328125 271.808594 127.273438 271.351562 C 130.210938 270.902344 133.207031 270.503906 136.261719 270.15625 C 144.464844 269.203125 152.644531 268.671875 160.804688 268.445312 C 168.933594 268.222656 177.042969 268.3125 185.121094 268.59375 C 193.175781 268.867188 201.203125 269.351562 209.175781 269.921875 C 217.140625 270.503906 225.058594 271.175781 232.894531 271.84375 C 240.003906 272.449219 247 273.050781 253.875 273.554688 C 260.742188 274.058594 267.476562 274.484375 274.0625 274.738281 C 280.636719 275 287.058594 275.085938 293.296875 274.941406 C 299.523438 274.785156 305.5625 274.398438 311.398438 273.691406 C 314.324219 273.332031 317.144531 272.902344 319.886719 272.398438 C 322.613281 271.894531 325.253906 271.3125 327.804688 270.652344 C 330.359375 270.003906 332.828125 269.261719 335.222656 268.457031 C 337.613281 267.640625 339.9375 266.757812 342.191406 265.789062 C 342.359375 265.71875 342.496094 265.632812 342.59375 265.527344 C 342.691406 265.429688 342.753906 265.3125 342.777344 265.195312 C 342.800781 265.078125 342.789062 264.953125 342.738281 264.816406 C 342.6875 264.691406 342.597656 264.554688 342.472656 264.425781 L 262.394531 182.050781 C 262.308594 181.976562 262.207031 181.886719 262.09375 181.808594 " fill-opacity="1" fill-rule="nonzero"/><g clip-path="url(#ed11238a6e)"><path fill="#040606" d="M 154.109375 148.71875 C 137.679688 148.71875 124.359375 135.402344 124.359375 118.984375 C 124.359375 102.558594 137.679688 89.25 154.109375 89.25 C 170.539062 89.25 183.855469 102.558594 183.855469 118.984375 C 183.855469 135.402344 170.539062 148.71875 154.109375 148.71875 Z M 154.109375 73.828125 C 129.160156 73.828125 108.941406 94.042969 108.941406 118.984375 C 108.941406 170.429688 154.109375 213.839844 154.109375 213.839844 C 154.109375 213.839844 199.277344 170.429688 199.277344 118.984375 C 199.277344 94.042969 179.054688 73.828125 154.109375 73.828125 " fill-opacity="1" fill-rule="nonzero"/></g></svg>