<svg xmlns="http://www.w3.org/2000/svg" xmlns:xlink="http://www.w3.org/1999/xlink" width="500" zoomAndPan="magnify" viewBox="0 0 375 374.999991" height="500" preserveAspectRatio="xMidYMid meet" version="1.0"><defs><clipPath id="ce4aa1a413"><path d="M 19 2 L 355.734375 2 L 355.734375 375 L 19 375 Z M 19 2 " clip-rule="nonzero"/></clipPath></defs><g clip-path="url(#ce4aa1a413)"><path fill="#000000" d="M 349.460938 98.71875 L 256.179688 98.71875 C 278.355469 89.792969 301.542969 74.425781 318.523438 47.882812 C 320.304688 45.089844 319.453125 41.363281 316.660156 39.578125 C 313.871094 37.792969 310.148438 38.648438 308.363281 41.441406 C 284.328125 79.160156 245.324219 92.121094 218.183594 96.542969 C 238.1875 85.214844 261.761719 67.90625 265.019531 47.417969 C 266.957031 35.15625 261.683594 23.671875 249.199219 13.269531 C 236.714844 2.792969 225.082031 0 214.769531 4.890625 C 200.191406 11.71875 191.972656 33.371094 187.320312 54.789062 C 182.667969 33.371094 174.449219 11.71875 159.871094 4.890625 C 149.558594 0.078125 138.003906 2.871094 125.441406 13.269531 C 112.957031 23.671875 107.683594 35.078125 109.621094 47.417969 C 112.957031 67.984375 136.53125 85.289062 156.535156 96.621094 C 129.394531 92.277344 90.390625 79.316406 66.199219 41.441406 C 64.414062 38.648438 60.691406 37.792969 57.902344 39.578125 C 55.109375 41.363281 54.257812 45.089844 56.039062 47.882812 C 72.945312 74.503906 96.128906 89.792969 118.386719 98.71875 L 25.257812 98.71875 C 21.921875 98.71875 19.285156 101.433594 19.285156 104.691406 L 19.285156 188.820312 C 19.285156 192.15625 22 194.796875 25.257812 194.796875 L 37.273438 194.796875 L 37.273438 369.023438 C 37.273438 372.359375 39.988281 375 43.246094 375 L 331.394531 375 C 334.730469 375 337.367188 372.285156 337.367188 369.023438 L 337.367188 194.871094 L 349.386719 194.871094 C 352.71875 194.871094 355.355469 192.15625 355.355469 188.898438 L 355.355469 104.691406 C 355.433594 101.433594 352.796875 98.71875 349.460938 98.71875 Z M 219.886719 15.753906 C 221.4375 15.054688 223.144531 14.667969 224.929688 14.667969 C 229.738281 14.667969 235.242188 17.304688 241.523438 22.507812 C 250.59375 30.035156 254.394531 37.5625 253.15625 45.476562 C 249.898438 65.8125 214.617188 85.910156 193.757812 95.457031 C 195.386719 71.632812 202.519531 23.902344 219.886719 15.753906 Z M 121.5625 45.476562 C 120.324219 37.5625 124.125 30.113281 133.195312 22.507812 C 139.476562 17.304688 145.058594 14.667969 149.789062 14.667969 C 151.574219 14.667969 153.277344 15.054688 154.832031 15.753906 C 172.277344 23.902344 179.332031 71.710938 180.960938 95.457031 C 160.101562 85.910156 124.820312 65.8125 121.5625 45.476562 Z M 31.304688 182.84375 L 31.304688 110.746094 L 151.339844 110.746094 L 151.339844 182.84375 Z M 49.292969 194.871094 L 151.339844 194.871094 L 151.339844 363.125 L 49.292969 363.125 Z M 163.359375 363.046875 L 163.359375 110.746094 L 179.332031 110.746094 C 179.953125 110.746094 180.652344 110.746094 181.273438 110.746094 C 182.28125 110.746094 183.210938 110.746094 183.984375 110.746094 L 190.808594 110.746094 C 191.585938 110.746094 192.515625 110.746094 193.523438 110.746094 C 194.066406 110.746094 194.84375 110.746094 195.460938 110.746094 L 211.4375 110.746094 L 211.4375 363.046875 Z M 223.378906 363.046875 L 223.378906 194.871094 L 325.425781 194.871094 L 325.425781 363.125 L 223.378906 363.125 Z M 343.414062 182.84375 L 223.378906 182.84375 L 223.378906 110.746094 L 343.414062 110.746094 Z M 343.414062 182.84375 " fill-opacity="1" fill-rule="nonzero"/></g></svg>