<svg xmlns="http://www.w3.org/2000/svg" xmlns:xlink="http://www.w3.org/1999/xlink" width="500" zoomAndPan="magnify" viewBox="0 0 375 374.999991" height="500" preserveAspectRatio="xMidYMid meet" version="1.0"><defs><clipPath id="85b470f5af"><path d="M 207 37.5 L 373 37.5 L 373 337.5 L 207 337.5 Z M 207 37.5 " clip-rule="nonzero"/></clipPath><clipPath id="841e03dbfa"><path d="M 2 37.5 L 194 37.5 L 194 188 L 2 188 Z M 2 37.5 " clip-rule="nonzero"/></clipPath><clipPath id="2cb2167c1d"><path d="M 50 191 L 146 191 L 146 337.5 L 50 337.5 Z M 50 191 " clip-rule="nonzero"/></clipPath></defs><g clip-path="url(#85b470f5af)"><path fill="#000000" d="M 262.933594 37.621094 L 232.929688 37.621094 C 232.351562 37.621094 231.78125 37.703125 231.226562 37.867188 C 230.671875 38.03125 230.152344 38.273438 229.664062 38.589844 C 229.179688 38.90625 228.75 39.285156 228.375 39.726562 C 228 40.167969 227.695312 40.65625 227.460938 41.183594 L 207.851562 85.683594 C 207.691406 86.042969 207.570312 86.414062 207.484375 86.800781 C 207.398438 87.183594 207.351562 87.574219 207.34375 87.96875 C 207.335938 88.363281 207.367188 88.753906 207.4375 89.140625 C 207.503906 89.527344 207.609375 89.90625 207.753906 90.269531 C 207.898438 90.636719 208.074219 90.988281 208.289062 91.320312 C 208.5 91.652344 208.742188 91.957031 209.015625 92.242188 C 209.289062 92.523438 209.589844 92.777344 209.910156 93.003906 C 210.234375 93.226562 210.578125 93.417969 210.9375 93.574219 L 243.742188 107.808594 L 252.6875 150.992188 C 251.429688 154.035156 248.703125 160.910156 245.070312 171.226562 C 244.894531 171.609375 244.761719 172.007812 244.671875 172.421875 C 227.222656 224.09375 214.796875 276.949219 207.398438 330.984375 C 207.335938 331.410156 207.320312 331.835938 207.351562 332.261719 C 207.382812 332.6875 207.460938 333.109375 207.582031 333.519531 C 207.703125 333.929688 207.863281 334.324219 208.070312 334.699219 C 208.273438 335.074219 208.519531 335.421875 208.796875 335.746094 C 209.078125 336.070312 209.390625 336.359375 209.734375 336.617188 C 210.074219 336.871094 210.441406 337.089844 210.832031 337.265625 C 211.222656 337.445312 211.625 337.578125 212.042969 337.671875 C 212.460938 337.761719 212.882812 337.808594 213.3125 337.808594 L 366.894531 337.808594 C 367.324219 337.808594 367.746094 337.761719 368.164062 337.671875 C 368.582031 337.578125 368.988281 337.445312 369.375 337.265625 C 369.765625 337.089844 370.132812 336.871094 370.476562 336.617188 C 370.816406 336.359375 371.128906 336.070312 371.410156 335.746094 C 371.691406 335.421875 371.933594 335.074219 372.136719 334.699219 C 372.34375 334.324219 372.507812 333.929688 372.628906 333.519531 C 372.75 333.109375 372.824219 332.6875 372.855469 332.261719 C 372.886719 331.835938 372.871094 331.410156 372.8125 330.984375 C 365.417969 277 353.007812 224.191406 335.589844 172.558594 C 335.484375 172.082031 335.324219 171.625 335.105469 171.183594 C 331.496094 160.890625 328.761719 154.03125 327.507812 150.992188 L 336.449219 107.808594 L 369.25 93.574219 C 369.613281 93.417969 369.953125 93.226562 370.277344 93.003906 C 370.601562 92.78125 370.898438 92.527344 371.171875 92.242188 C 371.445312 91.957031 371.691406 91.652344 371.902344 91.320312 C 372.113281 90.988281 372.292969 90.640625 372.4375 90.273438 C 372.582031 89.90625 372.6875 89.527344 372.753906 89.140625 C 372.824219 88.753906 372.855469 88.363281 372.847656 87.96875 C 372.839844 87.574219 372.792969 87.183594 372.707031 86.800781 C 372.621094 86.417969 372.5 86.042969 372.339844 85.683594 L 352.726562 41.183594 C 352.496094 40.65625 352.191406 40.167969 351.816406 39.726562 C 351.441406 39.285156 351.011719 38.90625 350.523438 38.589844 C 350.039062 38.273438 349.519531 38.03125 348.964844 37.867188 C 348.410156 37.703125 347.84375 37.621094 347.261719 37.621094 Z M 290.101562 73.292969 L 274.167969 49.570312 L 306.0625 49.570312 Z M 317.277344 157.554688 C 318.207031 159.863281 319.546875 163.296875 321.195312 167.777344 L 259 167.777344 C 260.648438 163.296875 261.992188 159.863281 262.917969 157.554688 Z M 290.097656 325.828125 L 220.207031 325.828125 C 227.40625 276.105469 238.925781 227.40625 254.765625 179.730469 L 325.421875 179.730469 C 341.265625 227.40625 352.785156 276.105469 359.980469 325.828125 Z M 358.980469 85.003906 L 339.410156 93.492188 L 343.875 71.953125 C 343.960938 71.566406 344.011719 71.175781 344.019531 70.777344 C 344.027344 70.378906 344 69.988281 343.929688 69.597656 C 343.863281 69.203125 343.753906 68.824219 343.609375 68.453125 C 343.464844 68.085938 343.285156 67.734375 343.070312 67.398438 C 342.855469 67.066406 342.609375 66.753906 342.335938 66.46875 C 342.058594 66.183594 341.757812 65.929688 341.429688 65.707031 C 341.101562 65.480469 340.753906 65.289062 340.390625 65.132812 C 340.023438 64.980469 339.648438 64.859375 339.257812 64.78125 C 338.871094 64.699219 338.476562 64.65625 338.082031 64.65625 C 337.683594 64.652344 337.289062 64.691406 336.902344 64.765625 C 336.511719 64.84375 336.132812 64.957031 335.765625 65.109375 C 335.398438 65.257812 335.050781 65.445312 334.722656 65.667969 C 334.390625 65.886719 334.085938 66.140625 333.808594 66.421875 C 333.527344 66.703125 333.277344 67.007812 333.058594 67.339844 C 332.839844 67.671875 332.65625 68.023438 332.507812 68.390625 C 332.359375 68.757812 332.246094 69.136719 332.175781 69.527344 L 316.421875 145.625 L 263.769531 145.625 L 248.019531 69.527344 C 247.9375 69.144531 247.820312 68.769531 247.667969 68.410156 C 247.515625 68.046875 247.328125 67.707031 247.109375 67.382812 C 246.886719 67.058594 246.636719 66.757812 246.355469 66.480469 C 246.078125 66.207031 245.773438 65.960938 245.445312 65.746094 C 245.117188 65.53125 244.773438 65.351562 244.410156 65.203125 C 244.042969 65.054688 243.671875 64.945312 243.285156 64.871094 C 242.898438 64.796875 242.511719 64.761719 242.117188 64.765625 C 241.726562 64.769531 241.339844 64.8125 240.953125 64.890625 C 240.570312 64.96875 240.195312 65.085938 239.835938 65.238281 C 239.476562 65.390625 239.132812 65.578125 238.808594 65.800781 C 238.484375 66.019531 238.183594 66.269531 237.90625 66.550781 C 237.632812 66.828125 237.386719 67.132812 237.171875 67.460938 C 236.957031 67.789062 236.777344 68.136719 236.628906 68.5 C 236.480469 68.863281 236.371094 69.238281 236.296875 69.621094 C 236.222656 70.007812 236.1875 70.398438 236.191406 70.789062 C 236.195312 71.183594 236.234375 71.570312 236.316406 71.953125 L 240.777344 93.492188 L 221.207031 85.003906 L 236.824219 49.570312 L 259.75 49.570312 L 285.082031 87.261719 L 285.082031 87.285156 L 285.113281 87.335938 C 285.175781 87.433594 285.261719 87.507812 285.332031 87.597656 C 285.492188 87.820312 285.664062 88.027344 285.855469 88.226562 C 286.03125 88.394531 286.222656 88.550781 286.417969 88.695312 C 286.53125 88.78125 286.621094 88.882812 286.738281 88.957031 L 286.765625 88.957031 C 287.019531 89.125 287.285156 89.269531 287.5625 89.390625 C 287.640625 89.429688 287.722656 89.484375 287.804688 89.519531 C 288.035156 89.601562 288.265625 89.671875 288.503906 89.726562 C 288.855469 89.824219 289.214844 89.886719 289.582031 89.914062 C 289.742188 89.914062 289.898438 89.957031 290.058594 89.957031 C 290.222656 89.957031 290.375 89.925781 290.539062 89.914062 C 291.144531 89.851562 291.734375 89.71875 292.3125 89.515625 C 292.394531 89.480469 292.472656 89.425781 292.558594 89.386719 C 292.835938 89.261719 293.101562 89.117188 293.355469 88.953125 L 293.382812 88.953125 C 293.492188 88.871094 293.597656 88.785156 293.695312 88.691406 C 293.898438 88.546875 294.085938 88.390625 294.265625 88.222656 C 294.453125 88.023438 294.628906 87.816406 294.789062 87.59375 C 294.855469 87.503906 294.941406 87.429688 295.003906 87.332031 L 295.039062 87.28125 L 295.039062 87.257812 L 320.375 49.566406 L 343.304688 49.566406 Z M 358.980469 85.003906 " fill-opacity="1" fill-rule="nonzero"/></g><g clip-path="url(#841e03dbfa)"><path fill="#000000" d="M 8.410156 150.695312 L 37.886719 150.695312 C 38.429688 150.695312 38.960938 150.621094 39.484375 150.476562 C 40.007812 150.328125 40.5 150.117188 40.964844 149.835938 C 41.429688 149.554688 41.851562 149.214844 42.222656 148.820312 C 42.597656 148.425781 42.910156 147.988281 43.164062 147.507812 L 49.0625 136.390625 C 50.25 151.332031 50.605469 166.292969 50.121094 181.273438 C 50.105469 181.675781 50.132812 182.074219 50.199219 182.46875 C 50.261719 182.867188 50.367188 183.25 50.511719 183.628906 C 50.65625 184.003906 50.835938 184.359375 51.050781 184.699219 C 51.265625 185.039062 51.511719 185.351562 51.792969 185.640625 C 52.070312 185.929688 52.375 186.1875 52.707031 186.417969 C 53.039062 186.644531 53.386719 186.835938 53.757812 186.992188 C 54.128906 187.148438 54.507812 187.269531 54.902344 187.347656 C 55.296875 187.429688 55.695312 187.46875 56.097656 187.46875 L 140.101562 187.46875 C 140.503906 187.46875 140.902344 187.429688 141.292969 187.347656 C 141.6875 187.269531 142.070312 187.148438 142.441406 186.992188 C 142.808594 186.835938 143.160156 186.644531 143.492188 186.417969 C 143.820312 186.1875 144.125 185.929688 144.40625 185.640625 C 144.683594 185.351562 144.933594 185.039062 145.148438 184.699219 C 145.363281 184.359375 145.542969 184.003906 145.6875 183.628906 C 145.828125 183.25 145.933594 182.867188 146 182.46875 C 146.066406 182.074219 146.089844 181.675781 146.074219 181.273438 C 145.589844 166.292969 145.941406 151.332031 147.136719 136.390625 L 153.035156 147.507812 C 153.289062 147.988281 153.601562 148.425781 153.972656 148.820312 C 154.347656 149.214844 154.765625 149.554688 155.230469 149.835938 C 155.695312 150.117188 156.191406 150.328125 156.714844 150.476562 C 157.234375 150.621094 157.769531 150.695312 158.3125 150.695312 L 187.789062 150.695312 C 188.242188 150.695312 188.6875 150.644531 189.128906 150.542969 C 189.570312 150.441406 189.992188 150.292969 190.402344 150.09375 C 190.808594 149.894531 191.1875 149.652344 191.539062 149.371094 C 191.890625 149.085938 192.207031 148.765625 192.488281 148.410156 C 192.765625 148.054688 193.003906 147.671875 193.195312 147.261719 C 193.386719 146.851562 193.53125 146.425781 193.628906 145.980469 C 193.722656 145.539062 193.769531 145.09375 193.761719 144.640625 C 193.753906 144.1875 193.699219 143.742188 193.589844 143.300781 L 174.15625 63.621094 C 173.953125 62.773438 173.578125 62.007812 173.039062 61.324219 C 172.496094 60.640625 171.839844 60.101562 171.0625 59.707031 L 128.898438 38.269531 C 128.839844 38.242188 128.78125 38.21875 128.722656 38.203125 C 128.511719 38.105469 128.296875 38.023438 128.074219 37.949219 C 127.910156 37.894531 127.746094 37.835938 127.574219 37.792969 C 127.363281 37.75 127.152344 37.714844 126.9375 37.695312 C 126.746094 37.664062 126.554688 37.644531 126.363281 37.636719 C 126.304688 37.636719 126.246094 37.636719 126.1875 37.636719 L 70 37.636719 C 69.941406 37.636719 69.886719 37.636719 69.824219 37.636719 C 69.636719 37.644531 69.449219 37.664062 69.261719 37.691406 C 69.042969 37.71875 68.824219 37.746094 68.609375 37.792969 C 68.398438 37.84375 68.285156 37.894531 68.121094 37.949219 C 67.898438 38.019531 67.679688 38.101562 67.46875 38.203125 C 67.40625 38.21875 67.347656 38.242188 67.292969 38.269531 L 25.140625 59.710938 C 24.363281 60.105469 23.703125 60.644531 23.164062 61.328125 C 22.621094 62.011719 22.25 62.777344 22.042969 63.625 L 2.609375 143.304688 C 2.503906 143.746094 2.445312 144.191406 2.441406 144.640625 C 2.433594 145.09375 2.480469 145.542969 2.574219 145.984375 C 2.671875 146.425781 2.816406 146.851562 3.007812 147.261719 C 3.199219 147.671875 3.4375 148.054688 3.714844 148.410156 C 3.992188 148.765625 4.308594 149.085938 4.660156 149.367188 C 5.011719 149.652344 5.394531 149.894531 5.800781 150.09375 C 6.207031 150.289062 6.628906 150.441406 7.070312 150.542969 C 7.511719 150.644531 7.957031 150.695312 8.410156 150.695312 Z M 98.105469 49.570312 L 117.300781 49.570312 L 98.09375 96.71875 L 78.886719 49.570312 Z M 32.996094 69.121094 L 66.917969 51.867188 L 92.496094 114.652344 C 92.78125 115.4375 93.214844 116.132812 93.796875 116.738281 C 94.375 117.34375 95.054688 117.804688 95.828125 118.125 C 96.089844 118.222656 96.355469 118.300781 96.625 118.359375 C 96.714844 118.382812 96.804688 118.425781 96.898438 118.445312 C 97.125 118.480469 97.351562 118.507812 97.582031 118.519531 C 97.753906 118.519531 97.914062 118.5625 98.085938 118.5625 C 98.257812 118.5625 98.421875 118.535156 98.589844 118.519531 C 98.816406 118.507812 99.046875 118.480469 99.273438 118.445312 C 99.367188 118.445312 99.453125 118.382812 99.546875 118.359375 C 100.519531 118.15625 101.375 117.71875 102.113281 117.058594 C 102.851562 116.394531 103.375 115.59375 103.6875 114.652344 L 129.261719 51.867188 L 163.183594 69.121094 L 180.164062 138.742188 L 161.902344 138.742188 L 149.234375 114.871094 C 151.984375 91.699219 155.414062 75.632812 155.472656 75.339844 C 155.566406 74.953125 155.621094 74.558594 155.636719 74.160156 C 155.652344 73.761719 155.628906 73.367188 155.566406 72.972656 C 155.503906 72.578125 155.402344 72.195312 155.261719 71.820312 C 155.121094 71.449219 154.945312 71.09375 154.734375 70.753906 C 154.519531 70.417969 154.277344 70.101562 154.003906 69.8125 C 153.730469 69.523438 153.429688 69.265625 153.101562 69.035156 C 152.777344 68.804688 152.429688 68.609375 152.066406 68.449219 C 151.699219 68.289062 151.324219 68.167969 150.933594 68.085938 C 150.542969 68 150.148438 67.953125 149.75 67.949219 C 149.351562 67.945312 148.957031 67.976562 148.5625 68.050781 C 148.171875 68.125 147.792969 68.238281 147.421875 68.386719 C 147.050781 68.535156 146.703125 68.722656 146.367188 68.941406 C 146.035156 69.164062 145.730469 69.414062 145.445312 69.695312 C 145.164062 69.976562 144.914062 70.285156 144.691406 70.617188 C 144.472656 70.949219 144.285156 71.300781 144.136719 71.667969 C 143.984375 72.039062 143.871094 72.417969 143.796875 72.8125 C 136.953125 106.707031 133.671875 140.945312 133.957031 175.527344 L 62.234375 175.527344 C 62.515625 140.945312 59.234375 106.707031 52.390625 72.8125 C 52.308594 72.429688 52.1875 72.058594 52.03125 71.699219 C 51.871094 71.339844 51.683594 71 51.457031 70.679688 C 51.234375 70.359375 50.980469 70.0625 50.699219 69.792969 C 50.417969 69.519531 50.113281 69.28125 49.78125 69.070312 C 49.453125 68.855469 49.105469 68.679688 48.742188 68.535156 C 48.378906 68.394531 48.003906 68.289062 47.617188 68.21875 C 47.234375 68.148438 46.84375 68.117188 46.453125 68.125 C 46.0625 68.132812 45.675781 68.175781 45.292969 68.257812 C 44.910156 68.339844 44.539062 68.460938 44.179688 68.617188 C 43.820312 68.773438 43.480469 68.960938 43.160156 69.183594 C 42.835938 69.40625 42.539062 69.660156 42.269531 69.9375 C 41.996094 70.21875 41.753906 70.523438 41.539062 70.855469 C 41.328125 71.183594 41.148438 71.527344 41.003906 71.890625 C 40.859375 72.257812 40.753906 72.628906 40.683594 73.015625 C 40.609375 73.398438 40.578125 73.789062 40.582031 74.179688 C 40.589844 74.570312 40.632812 74.957031 40.714844 75.339844 C 40.777344 75.632812 44.207031 91.699219 46.953125 114.871094 L 34.300781 138.742188 L 16.015625 138.742188 Z M 32.996094 69.121094 " fill-opacity="1" fill-rule="nonzero"/></g><g clip-path="url(#2cb2167c1d)"><path fill="#000000" d="M 52.042969 336.011719 C 52.601562 336.578125 53.25 337.011719 53.988281 337.320312 C 54.722656 337.625 55.488281 337.777344 56.289062 337.777344 L 86.34375 337.777344 C 86.707031 337.777344 87.070312 337.746094 87.425781 337.679688 C 87.785156 337.613281 88.132812 337.515625 88.472656 337.386719 C 88.8125 337.257812 89.140625 337.097656 89.449219 336.910156 C 89.761719 336.71875 90.050781 336.503906 90.324219 336.261719 C 90.597656 336.019531 90.84375 335.753906 91.066406 335.46875 C 91.289062 335.179688 91.484375 334.875 91.652344 334.550781 C 91.820312 334.230469 91.957031 333.894531 92.0625 333.542969 C 92.167969 333.195312 92.242188 332.839844 92.285156 332.480469 L 98.09375 281.527344 L 103.90625 332.480469 C 103.949219 332.839844 104.019531 333.195312 104.128906 333.542969 C 104.234375 333.890625 104.371094 334.226562 104.535156 334.550781 C 104.703125 334.875 104.898438 335.179688 105.121094 335.464844 C 105.34375 335.753906 105.59375 336.019531 105.863281 336.261719 C 106.136719 336.503906 106.425781 336.71875 106.738281 336.90625 C 107.046875 337.097656 107.371094 337.257812 107.710938 337.386719 C 108.050781 337.515625 108.402344 337.613281 108.757812 337.679688 C 109.117188 337.746094 109.476562 337.777344 109.839844 337.777344 L 139.902344 337.777344 C 140.296875 337.777344 140.6875 337.738281 141.074219 337.664062 C 141.460938 337.585938 141.839844 337.46875 142.203125 337.316406 C 142.566406 337.167969 142.914062 336.980469 143.242188 336.757812 C 143.566406 336.539062 143.871094 336.289062 144.148438 336.007812 C 144.425781 335.726562 144.671875 335.421875 144.890625 335.09375 C 145.109375 334.761719 145.292969 334.414062 145.441406 334.046875 C 145.585938 333.683594 145.699219 333.304688 145.773438 332.917969 C 145.847656 332.53125 145.882812 332.136719 145.878906 331.742188 L 144.484375 197.101562 C 144.484375 197.070312 144.484375 197.039062 144.484375 197.003906 C 144.480469 196.570312 144.429688 196.144531 144.335938 195.722656 L 144.3125 195.644531 C 144.234375 195.300781 144.128906 194.96875 143.992188 194.644531 C 143.765625 194.09375 143.464844 193.589844 143.085938 193.132812 C 142.707031 192.675781 142.269531 192.28125 141.769531 191.957031 C 141.273438 191.632812 140.738281 191.390625 140.164062 191.230469 C 139.59375 191.070312 139.011719 190.996094 138.417969 191.015625 C 138.371094 191.015625 138.335938 191.015625 138.292969 191.015625 L 57.835938 191.015625 C 57.796875 191.015625 57.757812 191.015625 57.714844 191.015625 L 57.652344 191.015625 C 56.429688 191.011719 55.3125 191.355469 54.304688 192.046875 C 54.273438 192.046875 54.246094 192.09375 54.21875 192.113281 C 53.933594 192.304688 53.667969 192.523438 53.421875 192.761719 C 53.234375 192.960938 53.058594 193.171875 52.898438 193.390625 C 52.835938 193.472656 52.761719 193.539062 52.707031 193.625 C 52.003906 194.640625 51.65625 195.765625 51.65625 197.003906 C 51.65625 197.042969 51.65625 197.082031 51.65625 197.121094 L 50.289062 331.742188 C 50.285156 332.542969 50.433594 333.3125 50.738281 334.050781 C 51.039062 334.792969 51.476562 335.445312 52.042969 336.011719 Z M 115.160156 325.828125 L 104.003906 228.136719 C 104.003906 227.996094 103.941406 227.875 103.917969 227.738281 C 103.882812 227.503906 103.832031 227.269531 103.765625 227.039062 C 103.707031 226.851562 103.625 226.679688 103.550781 226.5 C 103.480469 226.320312 103.414062 226.148438 103.324219 225.980469 C 103.203125 225.777344 103.070312 225.578125 102.925781 225.386719 C 102.847656 225.273438 102.773438 225.152344 102.6875 225.042969 C 102.511719 224.832031 102.320312 224.632812 102.117188 224.449219 C 102.042969 224.378906 101.972656 224.304688 101.898438 224.238281 C 101.65625 224.035156 101.398438 223.855469 101.125 223.695312 C 101.070312 223.664062 101.023438 223.625 100.964844 223.59375 C 100.664062 223.421875 100.351562 223.273438 100.023438 223.15625 L 99.960938 223.132812 C 99.597656 223.015625 99.226562 222.933594 98.847656 222.890625 L 98.792969 222.890625 C 98.5625 222.878906 98.335938 222.878906 98.105469 222.890625 C 97.890625 222.878906 97.675781 222.878906 97.460938 222.890625 L 97.386719 222.890625 C 97.011719 222.933594 96.644531 223.011719 96.285156 223.128906 L 96.234375 223.148438 C 95.882812 223.265625 95.546875 223.414062 95.222656 223.589844 L 95.105469 223.671875 C 94.824219 223.839844 94.558594 224.027344 94.3125 224.242188 C 94.246094 224.292969 94.199219 224.351562 94.140625 224.410156 C 93.917969 224.605469 93.710938 224.816406 93.523438 225.046875 C 93.445312 225.140625 93.386719 225.25 93.316406 225.347656 C 93.167969 225.550781 93.035156 225.761719 92.917969 225.980469 C 92.828125 226.140625 92.769531 226.3125 92.699219 226.480469 C 92.625 226.648438 92.535156 226.84375 92.472656 227.035156 C 92.410156 227.265625 92.359375 227.5 92.324219 227.734375 C 92.300781 227.867188 92.25 227.992188 92.234375 228.132812 L 81.082031 325.824219 L 62.320312 325.824219 L 63.570312 202.972656 L 132.59375 202.972656 L 133.878906 325.828125 Z M 115.160156 325.828125 " fill-opacity="1" fill-rule="nonzero"/></g></svg>